<svg id="visual" viewBox="0 0 900 600" width="900" height="600" xmlns="http://www.w3.org/2000/svg" xmlns:xlink="http://www.w3.org/1999/xlink" version="1.1"><g transform="translate(437.76150150112727 295.9569287907139)"><path d="M134.9 -188.4C175.3 -156.2 208.9 -117.5 232 -69.8C255.2 -22.1 267.9 34.5 256.9 88.1C245.8 141.7 211.1 192.2 164.3 222.5C117.6 252.8 58.8 262.9 1.3 261.1C-56.2 259.4 -112.5 245.8 -155.1 214.1C-197.7 182.5 -226.8 132.8 -234.3 82.5C-241.9 32.2 -227.9 -18.6 -213 -70.7C-198.1 -122.7 -182.2 -175.8 -146.6 -209.6C-110.9 -243.3 -55.4 -257.7 -4.1 -252C47.2 -246.3 94.4 -220.6 134.9 -188.4" fill="#4FACF7"></path></g></svg>