<svg id="visual" viewBox="0 0 900 600" width="900" height="600" xmlns="http://www.w3.org/2000/svg" xmlns:xlink="http://www.w3.org/1999/xlink" version="1.1"><g transform="translate(447.22207015064714 281.9039762807945)"><path d="M152.3 -197.4C199.5 -175.2 241.5 -133.7 252.6 -85.4C263.8 -37.1 244.1 17.9 225.4 72.5C206.6 127.1 188.8 181.3 151.4 217.8C114 254.3 57 273.1 6 264.9C-45.1 256.7 -90.1 221.4 -129 185.3C-167.8 149.3 -200.4 112.5 -222.6 67C-244.7 21.4 -256.5 -32.9 -247 -85.9C-237.6 -139 -207 -190.9 -162.3 -213.8C-117.6 -236.8 -58.8 -230.9 -3.1 -226.6C52.5 -222.3 105 -219.5 152.3 -197.4" fill="#4FACF7"></path></g></svg>